<svg width="37" height="36" viewBox="0 0 37 36" fill="none" xmlns="http://www.w3.org/2000/svg">
<rect x="0.750977" y="0.5" width="35" height="35" rx="17.5" fill="#98D9C6"/>
<rect x="0.750977" y="0.5" width="35" height="35" rx="17.5" stroke="#85BFAE"/>
<mask id="mask0_658_575" style="mask-type:alpha" maskUnits="userSpaceOnUse" x="6" y="6" width="25" height="24">
<rect x="6.25098" y="6" width="24" height="24" fill="#D9D9D9"/>
</mask>
<g mask="url(#mask0_658_575)">
<path d="M17.251 23H19.251V19H23.251V17H19.251V13H17.251V17H13.251V19H17.251V23ZM18.251 28C16.8676 28 15.5676 27.7375 14.351 27.2125C13.1343 26.6875 12.076 25.975 11.176 25.075C10.276 24.175 9.56348 23.1167 9.03848 21.9C8.51348 20.6833 8.25098 19.3833 8.25098 18C8.25098 16.6167 8.51348 15.3167 9.03848 14.1C9.56348 12.8833 10.276 11.825 11.176 10.925C12.076 10.025 13.1343 9.3125 14.351 8.7875C15.5676 8.2625 16.8676 8 18.251 8C19.6343 8 20.9343 8.2625 22.151 8.7875C23.3676 9.3125 24.426 10.025 25.326 10.925C26.226 11.825 26.9385 12.8833 27.4635 14.1C27.9885 15.3167 28.251 16.6167 28.251 18C28.251 19.3833 27.9885 20.6833 27.4635 21.9C26.9385 23.1167 26.226 24.175 25.326 25.075C24.426 25.975 23.3676 26.6875 22.151 27.2125C20.9343 27.7375 19.6343 28 18.251 28ZM18.251 26C20.4843 26 22.376 25.225 23.926 23.675C25.476 22.125 26.251 20.2333 26.251 18C26.251 15.7667 25.476 13.875 23.926 12.325C22.376 10.775 20.4843 10 18.251 10C16.0176 10 14.126 10.775 12.576 12.325C11.026 13.875 10.251 15.7667 10.251 18C10.251 20.2333 11.026 22.125 12.576 23.675C14.126 25.225 16.0176 26 18.251 26Z" fill="#0F3D30"/>
</g>
</svg>
