<svg width="48" height="48" viewBox="0 0 48 48" fill="none" xmlns="http://www.w3.org/2000/svg">
<path d="M18 7V5C17.3541 5 16.748 5.31193 16.3725 5.83752L18 7ZM30 7L31.6275 5.83752C31.252 5.31193 30.6459 5 30 5V7ZM13.7143 13V15C14.3602 15 14.9663 14.6881 15.3418 14.1625L13.7143 13ZM34.2857 13L32.6582 14.1625C33.0337 14.6881 33.6398 15 34.2857 15V13ZM18 9H30V5H18V9ZM15.3418 14.1625L19.6275 8.16248L16.3725 5.83752L12.0868 11.8375L15.3418 14.1625ZM8 15H13.7143V11H8V15ZM8 15V15V11C5.79086 11 4 12.7909 4 15H8ZM8 39V15H4V39H8ZM8 39H8H4C4 41.2091 5.79086 43 8 43V39ZM40 39H8V43H40V39ZM40 39V43C42.2091 43 44 41.2091 44 39H40ZM40 15V39H44V15H40ZM40 15H44C44 12.7909 42.2091 11 40 11V15ZM34.2857 15H40V11H34.2857V15ZM28.3725 8.16248L32.6582 14.1625L35.9132 11.8375L31.6275 5.83752L28.3725 8.16248Z" fill="white"/>
<circle cx="24" cy="25" r="6" stroke="white" stroke-width="4"/>
</svg>
