<svg width="1440" height="1874" viewBox="0 0 1440 1874" fill="none" xmlns="http://www.w3.org/2000/svg">
<g opacity="0.6" clip-path="url(#clip0_544_492)">
<path d="M1458.22 799.918C1370.28 940.252 1080.99 813.602 896.043 1009.01C784.596 1126.76 822.068 1244.13 694.95 1317.45C583.65 1381.66 499.406 1323.7 382.853 1353.19C269.242 1381.96 128.252 1492.98 15.4655 1860.97" stroke="#0000FF" stroke-miterlimit="10"/>
<path d="M1458.53 789.199C1391.41 883.709 1225.45 847.574 1069.72 890.798C1007.53 908.292 948.054 939.113 896.361 995.137C813.613 1084.8 813.848 1174.08 763.149 1244.21C746.841 1266.78 725.414 1287.18 694.44 1304.93C622.075 1346.38 561.007 1336.91 495.587 1334.78C460.051 1333.62 423.585 1333.91 383.371 1345.1C346.161 1355.46 306.212 1375.02 264.735 1409.95C181.907 1479.49 93.5969 1610.67 12.5653 1852.93" stroke="#0500FF" stroke-miterlimit="10"/>
<path d="M1458.86 778.459C1387.69 866.807 1222.34 830.723 1068.52 874.374C1006.09 892.092 947.822 924.431 896.695 981.239C815.499 1071.48 815.048 1161.2 763.253 1231.7C746.579 1254.4 724.914 1274.74 693.928 1292.4C621.314 1333.7 559.929 1324.43 494.664 1324.13C459.206 1323.96 423.304 1325.01 383.906 1336.99C347.372 1348.1 308.418 1368.5 267.362 1403.99C185.491 1474.36 96.5801 1605.63 9.68159 1844.87" stroke="#0A00FF" stroke-miterlimit="10"/>
<path d="M1459.18 767.719C1383.98 849.905 1219.31 814.168 1067.32 857.931C1004.68 875.964 947.585 909.712 897.046 967.319C817.398 1058.11 816.283 1148.28 763.392 1219.17C746.372 1241.99 724.45 1262.27 693.45 1279.83C620.586 1320.98 558.888 1311.95 493.774 1313.45C458.396 1314.28 423.036 1316.08 384.472 1328.84C348.618 1340.72 310.707 1362.02 270.021 1397.98C189.265 1469.37 99.5742 1600.53 6.83006 1836.77" stroke="#0F00FF" stroke-miterlimit="10"/>
<path d="M1459.51 756.979C1380.27 833.002 1216.27 797.613 1066.12 841.507C1003.3 859.872 947.35 895.012 897.383 953.44C819.282 1044.77 817.504 1135.41 763.501 1206.7C746.113 1229.63 723.974 1249.86 692.924 1267.34C619.808 1308.33 557.815 1299.51 492.837 1302.84C457.537 1304.65 422.723 1307.22 384.993 1320.77C349.818 1333.42 312.921 1355.56 272.636 1392.07C192.883 1464.36 102.544 1595.53 3.93521 1828.76" stroke="#1400FF" stroke-miterlimit="10"/>
<path d="M1459.84 746.239C1376.56 816.1 1213.24 781.095 1064.92 825.064C1001.9 843.763 947.113 880.293 897.733 939.521C821.176 1031.36 818.72 1122.5 763.64 1194.16C745.905 1217.22 723.512 1237.41 692.444 1254.75C619.077 1295.59 556.769 1286.98 491.947 1292.15C456.724 1294.95 422.436 1298.29 385.562 1312.64C351.048 1326.06 315.184 1349.03 275.298 1386.08C196.529 1459.27 105.54 1590.45 1.08616 1820.68" stroke="#1900FF" stroke-miterlimit="10"/>
<path d="M1460.15 735.502C1372.83 799.2 1210.2 764.561 1063.71 808.642C1000.48 827.656 946.857 865.577 898.052 925.644C823.02 1018 819.923 1109.63 763.746 1181.67C745.646 1204.86 723.034 1224.98 691.934 1242.23C618.319 1282.93 555.714 1274.54 491.005 1281.51C455.862 1285.31 422.12 1289.42 386.078 1304.53C352.208 1318.74 317.374 1342.53 277.908 1380.14C200.142 1454.22 108.486 1585.42 -1.81115 1812.66" stroke="#1E00FF" stroke-miterlimit="10"/>
<path d="M1460.47 724.762C1369.11 782.298 1207.17 748.062 1062.51 792.2C999.073 811.547 946.596 850.823 898.402 911.725C824.893 1004.58 821.158 1096.72 763.866 1169.15C745.42 1192.45 722.55 1212.52 691.438 1229.67C617.572 1270.22 554.652 1262.04 490.099 1270.84C455.036 1275.65 421.82 1280.52 386.629 1296.4C353.421 1311.4 319.617 1336.01 280.551 1374.15C203.785 1449.11 111.483 1580.34 -4.67888 1804.57" stroke="#2300FF" stroke-miterlimit="10"/>
<path d="M1460.8 714.021C1365.42 765.393 1204.14 731.563 1061.31 775.776C997.691 795.455 946.359 836.104 898.737 897.827C826.747 991.166 822.358 1083.84 763.989 1156.63C745.178 1180.07 722.07 1200.07 690.944 1217.13C616.827 1257.52 553.595 1249.57 489.195 1260.2C454.207 1265.97 421.522 1271.65 387.182 1288.29C354.619 1304.08 321.845 1329.5 283.215 1368.18C207.45 1444.01 114.482 1575.28 -7.52504 1796.51" stroke="#2800FF" stroke-miterlimit="10"/>
<path d="M1461.13 703.281C1361.7 748.472 1201.12 715.083 1060.11 759.333C996.29 779.365 946.114 821.329 899.09 883.926C828.599 977.73 823.595 1070.94 764.112 1144.12C744.954 1167.68 721.61 1187.64 690.432 1204.6C616.066 1244.84 552.535 1237.09 488.27 1249.53C453.362 1256.3 421.206 1262.78 387.714 1280.16C355.795 1296.74 324.07 1322.98 285.842 1362.22C211.077 1438.93 117.466 1570.24 -10.4089 1788.45" stroke="#2D00FF" stroke-miterlimit="10"/>
<path d="M1461.45 692.541C1357.99 731.57 1198.1 698.622 1058.91 742.89C994.887 763.256 945.853 806.575 899.422 870.009C830.43 964.278 824.811 1058.03 764.232 1131.59C744.727 1155.28 721.127 1175.17 689.935 1192.04C615.319 1232.13 551.473 1224.59 487.363 1238.86C452.532 1246.62 420.89 1253.9 388.265 1272.03C356.993 1289.42 326.295 1316.46 288.485 1356.23C214.72 1433.82 120.444 1565.16 -13.2765 1780.36" stroke="#3200FF" stroke-miterlimit="10"/>
<path d="M1461.76 681.804C1354.26 714.67 1195.08 682.161 1057.69 726.468C993.469 747.187 945.592 791.821 899.756 856.111C832.26 950.825 826.011 1045.15 764.336 1119.09C744.466 1142.89 720.646 1162.73 689.423 1179.5C614.555 1219.43 550.416 1212.13 486.44 1228.22C451.671 1236.98 420.557 1245.05 388.799 1263.92C357.041 1282.8 328.523 1309.95 291.111 1350.26C218.328 1428.73 123.424 1560.11 -16.1605 1772.3" stroke="#3700FF" stroke-miterlimit="10"/>
<path d="M1462.09 671.064C1350.55 697.768 1192.06 665.718 1056.49 710.026C992.066 731.078 945.325 777.029 900.091 842.213C834.069 937.357 827.23 1032.26 764.461 1106.6C744.245 1130.53 720.167 1150.3 688.932 1166.98C613.813 1206.75 549.359 1199.66 485.517 1217.57C450.825 1227.32 420.245 1236.22 389.333 1255.82C358.421 1275.41 330.729 1303.43 293.74 1344.32C221.954 1423.64 126.388 1555.07 -19.0418 1764.26" stroke="#3C00FF" stroke-miterlimit="10"/>
<path d="M1462.42 660.324C1346.84 680.866 1189.04 649.276 1055.29 693.602C990.668 715.007 945.062 762.257 900.444 828.313C835.897 923.885 828.467 1019.36 764.603 1094.08C744.021 1118.14 719.727 1137.86 688.457 1154.43C613.089 1194.07 548.321 1187.2 484.632 1206.92C450.018 1217.65 419.956 1227.4 389.908 1247.72C359.86 1268.04 332.978 1296.94 296.407 1338.36C225.6 1418.55 129.409 1550.03 -21.8853 1756.21" stroke="#4100FF" stroke-miterlimit="10"/>
<path d="M1462.74 649.584C1343.12 663.963 1186.05 632.849 1054.09 677.158C989.267 698.916 944.777 747.468 900.795 814.393C837.701 910.379 829.684 1006.45 764.723 1081.55C743.795 1105.73 719.244 1125.4 687.961 1141.87C612.342 1181.35 547.277 1174.69 483.726 1196.26C449.192 1207.99 419.645 1218.56 390.459 1239.59C361.273 1260.62 335.219 1290.4 299.05 1332.38C229.241 1413.42 132.387 1544.95 -24.7529 1748.13" stroke="#4600FF" stroke-miterlimit="10"/>
<path d="M1463.07 638.844C1339.41 647.061 1183.03 616.444 1052.89 660.735C987.89 682.861 944.51 732.676 901.132 800.514C839.489 896.894 830.905 993.581 764.848 1069.06C743.555 1093.37 718.765 1112.97 687.451 1129.35C611.6 1168.67 546.201 1162.23 482.803 1185.61C448.346 1198.33 419.317 1209.75 390.993 1231.48C362.669 1253.21 337.428 1283.9 301.679 1326.43C232.849 1408.33 135.37 1539.91 -27.6343 1740.08" stroke="#4B00FF" stroke-miterlimit="10"/>
<path d="M1463.38 628.106C1335.68 630.161 1180.02 600.058 1051.68 644.294C986.47 666.774 944.206 717.89 901.464 786.598C841.271 883.372 832.121 980.673 764.95 1056.53C743.309 1080.97 718.282 1100.5 686.936 1116.8C610.834 1155.96 545.142 1149.75 481.878 1174.95C447.498 1188.65 418.99 1200.94 391.525 1223.35C364.06 1245.77 339.631 1277.36 304.303 1320.44C236.451 1403.21 138.332 1534.86 -30.5207 1732" stroke="#5000FF" stroke-miterlimit="10"/>
<path d="M1463.71 617.366C1331.97 613.259 1177.01 583.672 1050.48 627.87C985.075 650.721 943.919 703.082 901.801 772.718C843.019 869.873 833.323 967.803 765.075 1044.04C743.069 1068.6 717.806 1088.1 686.445 1104.27C610.094 1143.3 544.084 1137.29 480.976 1164.32C446.677 1179.02 418.689 1192.18 392.081 1215.26C365.473 1238.34 341.859 1270.85 306.951 1314.49C240.078 1398.12 141.334 1529.81 -33.3644 1723.96" stroke="#5500FF" stroke-miterlimit="10"/>
<path d="M1464.03 606.626C1328.26 596.357 1174.02 567.283 1049.28 611.427C983.676 634.65 943.629 688.256 902.151 758.799C844.799 856.332 834.558 954.892 765.195 1031.51C742.843 1056.2 717.371 1075.7 685.948 1091.71C609.426 1130.74 543.025 1124.8 480.051 1153.65C445.829 1169.34 418.383 1183.38 392.613 1207.13C366.419 1231.29 344.062 1264.31 309.578 1308.53C243.681 1393 144.296 1524.76 -36.2482 1715.89" stroke="#5A00FF" stroke-miterlimit="10"/>
<path d="M1464.36 595.886C1324.56 579.452 1171.03 550.913 1048.08 595.003C982.281 618.597 943.322 673.451 902.486 744.901C846.541 842.796 835.777 942.002 765.318 1019C742.6 1043.81 716.89 1063.25 685.455 1079.17C608.681 1118.05 541.984 1112.32 479.144 1142.99C445 1159.66 418.079 1174.6 393.163 1199C368.247 1223.4 346.303 1257.77 312.239 1302.54C247.319 1387.85 147.311 1519.68 -39.0971 1707.81" stroke="#5F00FF" stroke-miterlimit="10"/>
<path d="M1464.69 585.146C1320.85 562.55 1168.05 534.562 1046.88 578.561C980.882 602.526 943.013 658.627 902.839 731C848.284 829.26 836.996 929.111 765.441 1006.49C742.377 1031.42 716.428 1050.8 684.942 1066.63C607.921 1105.37 540.908 1099.86 478.222 1132.34C444.157 1150.02 417.778 1165.84 393.698 1190.89C369.617 1215.95 348.51 1251.25 314.868 1296.59C250.927 1382.76 150.276 1514.64 -41.9783 1699.77" stroke="#6400FF" stroke-miterlimit="10"/>
<path d="M1465.02 574.424C1317.14 545.666 1165.06 518.229 1045.68 562.155C979.492 586.511 942.707 643.822 903.176 717.121C850.007 815.726 838.219 916.258 765.568 994.019C742.139 1019.08 715.955 1038.41 684.454 1054.13C607.181 1092.71 539.872 1087.41 477.323 1121.73C443.336 1140.39 417.501 1157.12 394.259 1182.84C370.018 1209.65 350.742 1244.78 317.521 1290.68C254.557 1377.69 153.283 1509.64 -44.8358 1691.76" stroke="#6900FF" stroke-miterlimit="10"/>
<path d="M1465.32 563.687C1313.41 528.766 1162.06 501.899 1044.46 545.715C978.094 570.44 942.358 628.984 903.508 703.204C851.726 802.156 839.435 903.349 765.689 981.489C741.913 1006.67 715.49 1025.94 683.958 1041.57C606.434 1079.99 538.81 1074.91 476.414 1111.05C442.504 1130.69 417.217 1148.33 394.807 1174.69C371.226 1202.41 352.943 1238.22 320.162 1284.67C258.154 1372.53 156.258 1504.54 -47.706 1683.66" stroke="#6E00FF" stroke-miterlimit="10"/>
<path d="M1465.65 552.947C1309.7 511.864 1159.08 485.585 1043.27 529.291C976.7 554.406 942.03 614.163 903.845 689.325C853.428 788.606 840.638 890.48 765.795 969C741.673 994.308 714.993 1013.52 683.448 1029.05C605.675 1067.33 537.737 1062.47 475.494 1100.42C441.664 1121.07 416.921 1139.61 395.344 1166.6C372.425 1195.24 355.15 1231.7 322.793 1278.75C261.76 1367.43 159.247 1499.54 -50.5846 1675.63" stroke="#7300FF" stroke-miterlimit="10"/>
<path d="M1465.98 542.207C1305.98 494.943 1156.1 469.272 1042.07 512.848C975.307 538.372 941.678 599.307 904.195 675.406C855.125 775.018 841.873 877.569 765.934 956.468C741.446 981.903 714.529 1001.05 682.97 1016.49C604.947 1054.62 536.712 1049.96 474.606 1089.75C440.854 1111.38 416.679 1130.86 395.913 1158.47C373.675 1188.03 357.391 1225.16 325.455 1272.76C265.379 1362.28 162.243 1494.46 -53.431 1667.56" stroke="#7800FF" stroke-miterlimit="10"/>
<path d="M1466.31 531.467C1302.27 478.041 1153.12 452.958 1040.87 496.424C973.933 522.336 941.329 584.469 904.53 661.508C856.804 761.434 843.091 864.678 766.038 943.96C741.204 969.519 714.05 988.622 682.439 1003.95C604.167 1041.94 535.617 1037.5 473.643 1079.09C439.968 1101.71 416.362 1122.12 396.407 1150.34C374.85 1180.83 359.557 1218.63 328.041 1266.78C268.923 1357.15 165.184 1489.39 -56.355 1659.49" stroke="#7D00FF" stroke-miterlimit="10"/>
<path d="M1466.63 520.727C1298.56 461.138 1150.16 436.661 1039.67 479.981C972.54 506.302 940.977 569.613 904.883 647.607C858.482 747.849 844.31 851.788 766.18 931.447C740.98 957.132 713.589 976.172 681.964 991.41C603.441 1029.24 534.596 1025.01 472.758 1068.44C439.163 1092.06 416.141 1113.39 396.98 1142.23C376.104 1173.64 361.779 1212.08 330.708 1260.83C272.545 1352.02 168.186 1484.35 -59.1985 1651.44" stroke="#8200FF" stroke-miterlimit="10"/>
<path d="M1466.94 509.989C1294.82 444.239 1147.16 420.387 1038.45 463.559C971.13 490.289 940.591 554.78 905.199 633.711C860.123 734.269 845.51 838.9 766.265 918.942C740.719 944.751 713.089 963.727 681.433 978.875C602.658 1016.55 533.498 1012.54 471.816 1057.8C438.299 1082.4 415.864 1104.67 397.495 1134.12C377.321 1166.47 363.967 1205.57 333.316 1254.86C276.107 1346.88 171.148 1479.29 -62.1013 1643.38" stroke="#8700FF" stroke-miterlimit="10"/>
<path d="M1467.27 499.249C1291.11 427.336 1144.2 404.109 1037.25 447.117C969.756 474.253 940.217 539.908 905.552 619.811C861.783 720.687 846.747 826.007 766.406 906.429C740.495 932.364 712.627 951.278 680.958 966.331C601.932 1003.85 532.46 1000.07 470.928 1047.13C437.47 1072.72 415.643 1095.93 398.065 1125.99C378.593 1159.27 366.186 1199.01 335.977 1248.87C279.726 1341.74 174.144 1474.22 -64.9502 1635.3" stroke="#8C00FF" stroke-miterlimit="10"/>
<path d="M1467.59 488.509C1287.4 410.434 1141.25 387.83 1036.05 430.693C968.387 458.254 939.828 525.057 905.886 605.913C863.402 707.092 847.947 813.12 766.529 893.918C740.271 919.978 712.149 938.85 680.464 953.79C601.19 991.169 531.419 987.584 470.024 1036.48C436.646 1063.08 415.425 1087.22 398.62 1117.9C379.87 1152.11 368.414 1192.5 338.628 1242.94C283.332 1336.63 177.149 1469.19 -67.81 1627.27" stroke="#9100FF" stroke-miterlimit="10"/>
<path d="M1467.92 477.769C1283.69 393.532 1138.29 371.57 1034.85 414.25C966.996 442.239 939.437 510.187 906.237 591.993C865.057 693.472 849.182 800.208 766.652 881.407C740.029 907.593 711.687 926.4 679.971 941.249C600.446 978.471 530.362 975.12 469.12 1025.83C435.819 1053.41 415.208 1078.51 399.174 1109.79C381.147 1144.95 370.618 1185.96 341.292 1236.97C286.932 1331.49 180.151 1464.15 -70.6561 1619.2" stroke="#9600FF" stroke-miterlimit="10"/>
<path d="M1468.25 467.029C1279.99 376.627 1135.34 355.329 1033.65 397.807C965.625 426.221 939.045 495.317 906.572 578.095C866.657 679.879 850.401 787.317 766.775 868.897C739.805 895.207 711.206 913.953 679.458 928.711C599.682 965.776 529.302 962.638 468.176 1015.17C434.953 1043.73 414.947 1069.76 399.687 1101.66C382.4 1137.76 372.781 1179.41 343.897 1230.99C290.493 1326.34 183.11 1459.08 -73.5614 1611.13" stroke="#9B00FF" stroke-miterlimit="10"/>
<path d="M1468.56 456.291C1276.26 359.727 1132.37 339.09 1032.44 381.385C964.239 410.244 938.615 480.452 906.906 564.198C868.258 666.286 851.601 774.43 766.878 856.389C739.543 882.826 710.725 901.506 678.946 916.173C598.918 953.081 528.224 950.158 467.254 1004.53C434.11 1034.09 414.729 1061.05 400.221 1093.55C383.677 1130.6 374.987 1172.89 346.526 1225.04C294.058 1321.22 186.074 1454.04 -76.4428 1603.08" stroke="#A000FF" stroke-miterlimit="10"/>
<path d="M1468.88 445.551C1272.55 342.825 1129.44 322.846 1031.23 364.942C962.87 394.245 938.186 465.587 907.257 550.278C869.872 652.652 852.836 761.518 767.017 843.857C739.336 870.417 710.234 888.984 678.468 903.61C598.129 940.198 527.183 937.673 466.366 993.856C433.3 1024.41 414.545 1052.31 400.791 1085.42C385.005 1123.4 377.207 1166.33 349.188 1219.05C297.656 1316.06 189.09 1448.96 -79.2916 1595" stroke="#A500FF" stroke-miterlimit="10"/>
<path d="M1469.21 434.811C1268.84 325.923 1126.49 306.624 1030.04 348.518C961.506 378.284 937.756 450.722 907.594 536.399C871.457 639.08 854.057 748.647 767.124 831.368C739.077 858.055 709.737 876.558 677.958 891.091C597.368 927.521 526.126 925.209 465.443 983.211C432.454 1014.75 414.346 1043.59 401.325 1077.31C386.301 1116.24 379.392 1159.79 351.817 1213.1C301.218 1310.92 192.054 1443.92 -82.1729 1586.95" stroke="#AA00FF" stroke-miterlimit="10"/>
<path d="M1469.54 424.071C1265.13 309.02 1123.56 290.418 1028.82 332.078C960.118 362.288 937.287 435.844 907.925 522.482C873.015 625.455 855.254 735.74 767.244 818.838C738.851 845.65 709.272 864.09 677.462 878.531C596.623 914.823 525.066 912.727 464.536 972.544C431.628 1005.08 414.163 1034.85 401.876 1069.18C387.61 1109.04 381.593 1153.23 354.46 1207.12C304.797 1305.76 195.051 1438.84 -85.0406 1578.87" stroke="#AF00FF" stroke-miterlimit="10"/>
<path d="M1469.86 413.331C1261.41 292.118 1120.63 274.212 1027.62 315.654C958.775 346.343 936.839 420.982 908.26 508.584C874.575 611.848 856.473 722.85 767.348 806.33C738.589 833.268 708.775 851.664 676.928 865.976C595.838 902.112 523.985 900.228 463.592 961.883C430.761 995.405 413.942 1026.12 402.389 1061.05C388.903 1101.86 383.756 1146.68 357.065 1201.14C308.32 1300.61 197.991 1433.77 -87.9459 1570.79" stroke="#B400FF" stroke-miterlimit="10"/>
<path d="M1470.19 402.591C1257.7 275.216 1117.7 258.006 1026.42 299.211C957.409 330.363 936.385 406.082 908.613 494.684C876.136 598.241 857.711 709.957 767.49 793.817C738.384 820.879 708.332 839.212 676.453 853.433C595.113 889.412 522.945 887.743 462.705 951.213C429.954 985.739 413.778 1017.38 402.961 1052.94C390.253 1094.67 385.96 1140.14 359.732 1195.18C311.92 1295.47 200.996 1428.75 -90.7893 1562.75" stroke="#B900FF" stroke-miterlimit="10"/>
<path d="M1470.5 391.854C1253.97 258.316 1114.76 241.821 1025.2 282.79C956.047 314.42 935.9 391.225 908.929 480.788C877.659 584.64 858.892 697.072 767.596 781.328C738.144 808.514 707.835 826.786 675.944 840.914C594.354 876.754 521.871 875.301 461.766 940.589C429.092 976.099 413.579 1008.67 403.479 1044.85C391.568 1087.5 388.131 1133.65 362.342 1189.24C315.448 1290.35 203.961 1423.71 -93.6893 1554.71" stroke="#BE00FF" stroke-miterlimit="10"/>
<path d="M1470.83 381.114C1250.25 241.395 1111.83 225.634 1024 266.347C954.704 298.475 935.411 376.349 909.282 466.888C879.22 571.033 860.129 684.179 767.719 768.818C737.902 796.13 707.357 814.358 675.45 828.373C593.609 864.056 520.83 862.815 460.862 929.942C428.265 966.436 413.417 999.944 404.032 1036.74C392.919 1080.34 390.335 1127.11 364.987 1183.27C319.011 1285.21 206.941 1418.66 -96.5545 1546.64" stroke="#C300FF" stroke-miterlimit="10"/>
<path d="M1471.15 370.373C1246.54 224.493 1108.93 209.463 1022.8 249.923C953.364 282.549 934.923 361.473 909.617 452.989C880.743 557.431 861.348 671.288 767.842 756.307C737.678 783.743 706.895 801.909 674.956 815.832C592.865 851.358 519.773 850.352 459.958 919.293C427.442 956.791 413.253 991.203 404.586 1028.63C394.269 1073.15 392.52 1120.57 367.635 1177.32C322.593 1280.07 209.943 1413.62 -99.3982 1538.59" stroke="#C800FF" stroke-miterlimit="10"/>
<path d="M1471.48 359.652C1242.83 207.609 1106.01 193.313 1021.61 233.499C952.027 266.641 934.419 346.618 909.97 439.089C882.268 543.848 862.566 658.398 767.964 743.796C737.433 771.34 706.414 789.462 674.444 803.293C592.101 838.663 518.714 837.869 459.032 908.629C426.594 947.111 413.086 982.444 405.118 1020.5C395.597 1065.94 394.702 1114.01 370.278 1171.33C326.153 1274.92 212.921 1408.54 -102.266 1530.51" stroke="#CD00FF" stroke-miterlimit="10"/>
<path d="M1471.81 348.912C1239.12 190.707 1103.1 177.142 1020.41 217.075C950.708 250.731 933.911 331.745 910.307 425.21C883.775 530.268 863.788 645.527 768.089 731.305C737.211 758.973 705.954 777.031 673.952 790.771C591.361 826.003 517.659 825.424 458.131 898C425.77 937.466 412.924 973.723 405.673 1012.41C396.965 1058.75 396.889 1107.5 372.926 1165.38C329.697 1269.78 215.923 1403.5 -105.126 1522.48" stroke="#D200FF" stroke-miterlimit="10"/>
<path d="M1472.12 338.174C1235.41 173.805 1100.18 160.992 1019.19 200.634C949.37 234.824 933.367 316.877 910.639 411.293C885.277 516.65 865.004 632.618 768.191 718.778C736.948 746.572 705.455 764.586 673.438 778.214C590.595 813.288 516.578 812.925 457.205 887.336C424.924 927.805 412.757 964.963 406.205 1004.28C398.312 1051.55 399.053 1100.94 375.552 1159.42C333.241 1264.65 218.885 1398.44 -108.01 1514.42" stroke="#D700FF" stroke-miterlimit="10"/>
<path d="M1472.45 327.434C1231.7 156.902 1097.3 144.837 1017.99 184.21C948.054 218.933 932.841 302.006 910.973 397.395C886.762 503.054 866.204 619.73 768.314 706.267C736.724 734.186 704.974 752.139 672.944 765.673C589.851 800.591 515.537 800.44 456.28 876.672C424.058 918.128 412.588 956.186 406.74 996.171C399.678 1044.34 401.238 1094.41 378.179 1153.45C336.782 1259.5 221.868 1393.4 -110.893 1506.36" stroke="#DC00FF" stroke-miterlimit="10"/>
<path d="M1472.77 316.694C1227.98 140 1094.4 128.685 1016.79 167.768C946.738 203.042 932.296 287.138 911.326 383.494C888.248 489.457 867.441 606.837 768.455 693.754C736.5 721.799 704.531 739.687 672.469 753.13C589.125 787.89 514.499 787.974 455.395 866.021C423.25 908.461 412.461 947.44 407.312 988.057C401.065 1037.15 403.441 1087.87 380.843 1147.48C340.345 1254.36 224.867 1388.34 -113.74 1498.29" stroke="#E100FF" stroke-miterlimit="10"/>
<path d="M1473.1 305.954C1224.27 123.098 1091.52 112.548 1015.59 151.344C945.427 187.188 931.751 272.27 911.661 369.596C889.736 475.879 868.66 593.947 768.559 681.246C736.257 709.416 704.031 727.243 671.956 740.591C588.363 775.214 513.439 775.492 454.472 855.376C422.407 898.819 412.313 938.678 407.846 979.948C402.431 1029.94 405.607 1081.33 383.472 1141.53C343.889 1249.22 227.85 1383.3 -116.621 1490.25" stroke="#E600FF" stroke-miterlimit="10"/>
<path d="M1473.43 295.214C1220.56 106.196 1088.64 96.4122 1014.39 134.9C944.132 171.313 931.188 257.404 912.014 355.696C891.202 462.285 869.878 581.056 768.703 668.752C736.036 697.047 703.593 714.828 671.465 728.069C587.64 762.532 512.385 763.047 453.568 844.728C421.581 889.155 412.165 929.917 408.399 971.836C403.815 1022.73 407.792 1074.8 386.118 1135.57C347.433 1244.09 230.831 1378.25 -119.486 1482.19" stroke="#EB00FF" stroke-miterlimit="10"/>
<path d="M1473.74 284.477C1216.83 89.296 1085.76 80.2949 1013.18 118.479C942.842 155.475 930.606 242.542 912.329 341.8C892.653 448.713 871.078 568.169 768.788 656.246C735.775 684.666 703.075 702.386 670.934 715.533C586.858 749.84 511.306 750.567 452.627 834.085C420.717 879.497 411.998 921.158 408.915 963.73C405.159 1015.5 409.838 1068.22 388.728 1129.62C350.76 1238.91 233.795 1373.21 -122.386 1474.15" stroke="#F000FF" stroke-miterlimit="10"/>
<path d="M1474.06 273.737C1213.11 72.3938 1082.88 64.1776 1011.98 102.036C941.071 139.895 930.024 227.679 912.68 327.881C894.119 435.119 872.313 555.257 768.927 643.714C735.548 672.261 702.629 689.915 670.457 702.971C586.132 737.139 510.263 738.063 451.739 823.416C419.909 869.831 411.866 912.375 409.484 955.597C406.56 1008.27 412.06 1061.68 391.39 1123.63C354.379 1233.76 236.792 1368.13 -125.235 1466.06" stroke="#F500FF" stroke-miterlimit="10"/>
<path d="M1474.39 262.996C1209.4 55.4912 1080.02 48.0574 1010.78 85.6121C940.305 123.833 929.444 212.834 913.036 313.999C895.573 421.565 873.535 542.385 769.053 631.222C735.327 659.893 702.151 677.487 669.966 690.449C585.39 724.46 509.208 725.618 450.835 812.768C419.082 860.167 411.734 903.591 410.038 947.485C407.942 1001.04 414.285 1055.16 394.035 1117.66C357.982 1228.64 239.792 1363.07 -128.1 1458" stroke="#FA00FF" stroke-miterlimit="10"/>
<path d="M1474.72 252.256C1205.69 38.589 1077.18 31.935 1009.58 69.1692C864.514 149.063 974.688 445.031 769.173 618.693C645.352 723.343 530.264 679.321 449.91 802.104C379.536 909.61 432.682 996.998 396.662 1111.7C361.547 1223.52 242.756 1358.04 -130.984 1449.94" stroke="#FF00FF" stroke-miterlimit="10"/>
</g>
<defs>
<clipPath id="clip0_544_492">
<rect width="1754.19" height="1650.67" fill="white" transform="translate(1664.9 1635.39) rotate(172.199)"/>
</clipPath>
</defs>
</svg>
