<svg width="909" height="819" viewBox="0 0 909 819" fill="none" xmlns="http://www.w3.org/2000/svg">
<g opacity="0.6" clip-path="url(#clip0_544_439)">
<path d="M-20.8427 396.715C24.6134 322.105 178.053 386.995 274.319 282.688C332.326 219.839 311.782 158.172 378.35 118.652C436.635 84.0429 481.459 114.062 542.745 97.7305C602.484 81.8023 676.121 22.3039 733.175 -172.562" stroke="#0000FF" stroke-miterlimit="10"/>
<path d="M-20.9356 402.371C13.845 352.072 101.626 370.033 183.488 346.199C216.18 336.558 247.346 319.906 274.243 290.01C317.298 242.162 316.582 195.068 342.861 157.742C351.314 145.727 362.481 134.822 378.702 125.252C416.6 102.91 448.876 107.498 483.4 108.19C502.153 108.565 521.386 108.171 542.525 102C562.085 96.2887 583.028 85.7085 604.676 67.0042C647.907 29.7772 693.621 -40.0072 734.758 -168.34" stroke="#0500FF" stroke-miterlimit="10"/>
<path d="M-21.0368 408.039C15.9154 360.963 103.379 378.901 184.228 354.855C217.044 345.094 247.566 327.649 274.159 297.344C316.392 249.204 316.035 201.875 342.889 164.341C351.534 152.256 362.827 141.383 379.056 131.863C417.086 109.592 449.528 114.074 483.957 113.799C502.662 113.656 521.594 112.862 542.297 106.281C561.495 100.179 581.908 89.1627 603.33 70.1686C646.05 32.5024 692.08 -37.3294 736.333 -164.106" stroke="#0A00FF" stroke-miterlimit="10"/>
<path d="M-21.1382 413.706C17.9857 369.855 105.089 387.613 184.971 363.52C217.893 353.592 247.789 335.412 274.066 304.689C315.478 256.268 315.469 208.694 342.899 170.952C351.726 158.8 363.155 147.957 379.391 138.487C417.554 116.296 450.16 120.653 484.498 119.431C503.154 118.759 521.794 117.574 542.052 110.585C560.887 104.082 580.743 92.5931 601.967 73.3557C644.092 35.1619 690.535 -34.6204 737.891 -159.85" stroke="#0F00FF" stroke-miterlimit="10"/>
<path d="M-21.2394 419.374C20.0562 378.746 106.799 396.326 185.711 372.176C218.729 362.072 248.01 343.164 273.981 312.012C314.573 263.319 314.91 215.492 342.924 177.531C351.944 165.32 363.488 154.5 379.751 145.076C418.048 122.967 450.808 127.209 485.062 125.019C503.671 123.829 522.019 122.242 541.831 114.845C560.302 107.942 579.618 96.0176 600.627 76.489C642.217 37.8292 689.001 -31.9639 739.471 -155.648" stroke="#1400FF" stroke-miterlimit="10"/>
<path d="M-21.3407 425.041C22.1266 387.637 108.506 405.019 186.454 380.842C219.576 370.56 248.233 350.927 273.888 319.357C313.663 270.403 314.354 222.309 342.934 184.143C352.136 171.864 363.815 161.064 380.088 151.709C418.518 129.681 451.443 133.808 485.603 130.651C504.164 128.942 522.229 126.953 541.585 119.139C559.702 111.833 578.468 99.4762 599.262 79.6662C640.328 40.5391 687.454 -29.2648 741.027 -151.402" stroke="#1900FF" stroke-miterlimit="10"/>
<path d="M-21.4321 430.707C24.2069 396.527 110.224 413.721 187.205 389.496C220.433 379.047 248.466 358.688 273.812 326.679C312.779 277.461 313.805 229.106 342.961 190.732C352.355 178.383 364.149 167.617 380.44 158.31C419.002 136.353 452.082 140.366 486.17 136.259C504.683 134.021 522.455 131.631 541.366 123.418C559.139 115.7 577.356 102.919 597.925 82.8192C638.455 43.2262 685.934 -26.59 742.609 -147.19" stroke="#1E00FF" stroke-miterlimit="10"/>
<path d="M-21.5334 436.375C26.2773 405.419 111.93 422.404 187.947 398.162C221.28 387.535 248.701 366.469 273.72 334.024C311.88 284.553 313.239 235.925 342.98 197.342C352.556 184.926 364.487 174.189 380.785 164.932C419.481 143.056 452.725 146.953 486.719 141.88C505.183 139.113 522.672 136.321 541.13 127.711C558.547 119.58 576.216 106.376 596.57 85.995C636.567 45.946 684.387 -23.891 744.175 -142.945" stroke="#2300FF" stroke-miterlimit="10"/>
<path d="M-21.6347 442.043C28.3378 414.311 113.635 431.087 188.688 406.818C222.116 396.015 248.924 374.232 273.635 341.357C310.991 291.643 312.692 242.731 342.999 203.942C352.766 191.457 364.823 180.752 381.129 171.544C419.958 149.75 453.366 153.521 487.266 147.491C505.684 144.215 522.888 141.001 540.892 131.993C557.964 123.449 575.084 109.822 595.205 89.1623C634.668 48.6574 682.838 -21.2018 745.73 -138.709" stroke="#2800FF" stroke-miterlimit="10"/>
<path d="M-21.7359 447.71C30.4097 423.213 115.339 439.76 189.43 415.483C222.962 404.493 249.151 382.024 273.541 348.692C310.103 298.743 312.125 249.54 343.017 210.542C352.967 197.989 365.148 187.306 381.482 178.155C420.443 156.431 454.007 160.098 487.825 153.11C506.194 149.306 523.113 145.679 540.665 136.284C557.392 127.327 573.953 113.278 593.859 92.3267C632.789 51.3658 681.298 -18.524 747.305 -134.475" stroke="#2D00FF" stroke-miterlimit="10"/>
<path d="M-21.8372 453.378C32.48 432.104 117.042 448.424 190.172 424.149C223.809 412.981 249.387 389.805 273.458 356.036C309.227 305.851 311.569 256.358 343.037 217.152C353.168 204.531 365.486 193.879 381.827 184.777C420.922 163.135 454.651 166.686 488.374 158.731C506.696 154.408 523.339 150.357 540.429 140.577C556.809 131.196 572.823 116.733 592.504 95.5025C630.901 54.0855 679.761 -15.8264 748.871 -130.23" stroke="#3200FF" stroke-miterlimit="10"/>
<path d="M-21.9286 459.044C34.5603 440.994 118.744 457.087 190.923 432.803C224.663 421.448 249.622 397.586 273.374 363.369C308.351 312.96 311.021 263.164 343.065 223.751C353.388 211.061 365.822 200.441 382.181 191.387C421.409 169.826 455.291 173.253 488.931 164.34C507.214 159.487 523.573 155.024 540.2 144.858C556.828 134.692 571.691 120.179 591.158 98.6668C629.031 56.7924 678.222 -13.1387 750.446 -125.997" stroke="#3700FF" stroke-miterlimit="10"/>
<path d="M-22.0299 464.711C36.6307 449.885 120.445 465.74 191.665 441.469C225.51 429.936 249.861 405.387 273.29 370.702C307.486 320.076 310.464 269.972 343.081 230.341C353.587 217.583 366.157 206.994 382.523 197.989C421.885 176.509 455.931 179.821 489.489 169.949C507.724 164.578 523.796 159.682 539.972 149.139C556.149 138.595 570.571 123.633 589.811 101.821C627.152 59.5008 676.692 -10.4625 752.019 -121.773" stroke="#3C00FF" stroke-miterlimit="10"/>
<path d="M-22.1312 470.379C38.7011 458.777 122.147 474.394 192.406 450.125C226.354 438.405 250.098 413.178 273.196 378.037C306.611 327.195 309.897 276.781 343.09 236.943C353.787 224.116 366.471 213.55 382.857 204.603C422.35 183.194 456.561 186.39 490.026 175.562C508.214 169.671 524.008 164.332 539.723 153.413C555.438 142.494 569.427 127.071 588.444 104.979C625.263 62.2107 675.132 -7.78171 753.572 -117.547" stroke="#4100FF" stroke-miterlimit="10"/>
<path d="M-22.2325 476.046C40.7715 467.668 123.836 483.039 193.148 458.79C227.2 446.883 250.346 420.977 273.103 385.382C305.749 334.331 309.341 283.599 343.109 243.553C353.989 230.658 366.809 220.122 383.202 211.225C422.829 189.897 457.195 192.979 490.575 181.182C508.714 174.764 524.23 168.991 539.486 157.705C554.743 146.42 568.289 130.538 587.089 108.154C623.376 64.9403 673.594 -5.08413 755.139 -113.302" stroke="#4600FF" stroke-miterlimit="10"/>
<path d="M-22.3337 481.714C42.8419 476.559 125.534 491.673 193.889 467.446C228.033 455.343 250.585 428.778 273.017 392.706C304.895 341.456 308.782 290.397 343.126 250.143C354.197 237.179 367.144 226.675 383.554 217.826C423.304 196.581 457.845 199.545 491.133 186.792C509.224 179.854 524.461 173.638 539.258 161.986C554.055 150.335 567.167 133.982 585.742 111.309C621.507 67.6472 672.054 -2.40634 756.712 -109.079" stroke="#4B00FF" stroke-miterlimit="10"/>
<path d="M-22.4252 487.38C44.9222 485.449 127.231 500.296 194.641 476.11C228.888 463.82 250.843 436.576 272.935 400.049C304.044 348.601 308.226 297.214 343.156 256.752C354.409 243.72 367.481 233.247 383.909 224.446C423.793 203.282 458.487 206.123 491.691 192.411C509.736 184.955 524.693 178.285 539.032 166.278C553.371 154.27 566.048 137.446 584.397 114.483C619.64 70.374 670.525 0.279885 758.288 -104.835" stroke="#5000FF" stroke-miterlimit="10"/>
<path d="M-22.5264 493.048C46.9926 494.341 128.928 508.92 195.382 484.766C229.731 472.279 251.093 444.385 272.849 407.373C303.212 355.733 307.677 304.011 343.173 263.342C354.618 250.241 367.815 239.79 384.251 231.048C424.267 209.956 459.127 212.69 492.237 198.012C510.233 190.027 524.909 182.904 538.792 170.55C552.675 158.197 564.916 140.892 583.04 117.639C617.761 73.0824 668.975 2.95916 759.842 -100.609" stroke="#5500FF" stroke-miterlimit="10"/>
<path d="M-22.6277 498.715C49.063 503.232 130.614 517.546 196.124 493.432C230.575 480.747 251.345 452.204 272.756 414.717C302.363 362.888 307.111 310.83 343.192 269.952C354.819 256.784 368.127 246.326 384.596 237.67C424.703 216.574 459.769 219.268 492.796 203.631C510.744 195.128 525.129 187.542 538.565 174.841C552.222 161.925 563.797 144.356 581.694 120.804C615.894 75.8091 667.447 5.64537 761.416 -96.3756" stroke="#5A00FF" stroke-miterlimit="10"/>
<path d="M-22.729 504.383C51.1235 512.125 132.3 526.161 196.865 502.088C231.418 489.205 251.605 460.012 272.672 422.051C301.534 370.04 306.554 317.637 343.21 276.552C355.029 263.315 368.463 252.889 384.939 244.282C425.18 223.267 460.401 225.847 493.345 209.252C511.246 200.23 525.347 192.171 538.329 179.134C551.31 166.096 562.658 147.823 580.33 123.981C614.01 78.5486 665.889 8.34591 762.973 -92.1293" stroke="#5F00FF" stroke-miterlimit="10"/>
<path d="M-22.8303 510.051C53.1939 521.016 133.983 534.766 197.607 510.753C232.262 497.674 251.866 467.829 272.578 429.386C300.704 377.192 305.997 324.445 343.229 283.152C355.23 269.847 368.789 259.453 385.293 250.893C425.665 229.949 461.051 232.413 493.903 214.861C511.754 205.31 525.564 196.79 538.101 183.415C550.637 170.039 561.537 151.277 578.982 127.135C612.14 81.2555 664.359 11.0222 764.546 -87.9058" stroke="#6400FF" stroke-miterlimit="10"/>
<path d="M-22.9331 515.708C55.2628 529.898 135.666 543.362 198.347 519.399C233.102 506.113 252.126 475.637 272.492 436.709C299.885 384.342 305.436 331.233 343.244 289.733C355.437 276.358 369.121 265.986 385.633 257.485C426.139 236.623 461.68 238.972 494.447 220.452C512.251 210.383 525.768 201.391 537.858 187.668C550.467 173.361 560.402 154.703 577.622 130.272C610.259 83.954 662.806 13.6817 766.106 -83.7006" stroke="#6900FF" stroke-miterlimit="10"/>
<path d="M-23.0244 521.374C57.3431 538.787 137.358 551.956 199.099 528.063C233.946 514.581 252.408 483.462 272.409 444.053C299.068 391.512 304.88 338.051 343.264 296.343C355.638 282.901 369.449 272.56 385.979 264.107C426.618 243.326 462.323 245.56 494.998 226.083C512.755 215.495 525.977 206.021 537.623 191.97C549.879 177.191 559.285 158.177 576.269 133.457C608.396 86.7005 661.27 16.3891 767.674 -79.446" stroke="#6E00FF" stroke-miterlimit="10"/>
<path d="M-23.1258 527.042C59.4135 547.679 139.039 560.542 199.84 536.719C234.787 523.03 252.679 491.278 272.324 451.376C298.26 398.671 304.331 344.847 343.29 302.931C355.847 289.422 369.793 279.111 386.33 270.708C427.102 249.998 462.972 252.116 495.553 231.682C513.262 220.565 526.19 210.62 537.393 196.241C549.293 180.979 558.164 161.631 574.92 136.602C606.527 89.4173 659.727 19.0472 769.246 -75.2323" stroke="#7300FF" stroke-miterlimit="10"/>
<path d="M-23.2271 532.709C61.4853 556.58 140.719 569.128 200.582 545.385C235.628 531.478 252.963 499.112 272.231 458.721C297.455 405.85 303.766 351.666 343.3 309.543C356.049 295.964 370.121 285.685 386.666 277.331C427.57 256.702 463.595 258.706 496.092 237.304C513.753 225.669 526.376 215.233 537.147 200.535C548.682 184.792 557.025 165.098 573.556 139.779C604.652 92.1554 658.18 21.7462 770.801 -70.996" stroke="#7800FF" stroke-miterlimit="10"/>
<path d="M-23.3283 538.377C63.5558 565.471 142.4 577.713 201.323 554.041C236.46 539.928 253.246 506.937 272.147 466.055C296.66 413.027 303.208 358.474 343.328 316.142C356.259 302.495 370.456 292.238 387.029 283.941C428.066 263.383 464.255 265.271 496.671 242.921C514.285 230.767 526.602 219.841 536.94 204.823C548.109 188.599 555.926 168.559 572.232 142.95C602.817 94.8875 656.663 24.4408 772.397 -66.7557" stroke="#7D00FF" stroke-miterlimit="10"/>
<path d="M-23.4297 544.045C65.6261 574.363 144.07 586.291 202.065 562.706C237.301 548.377 253.53 514.771 272.053 473.389C295.864 420.204 302.651 365.282 343.337 322.743C356.459 309.027 370.782 298.802 387.363 290.554C428.533 270.077 464.877 271.851 497.209 248.533C514.773 235.85 526.776 224.446 536.692 209.107C547.496 192.402 554.797 172.025 570.864 146.108C600.941 97.6157 655.112 27.1201 773.95 -62.5292" stroke="#8200FF" stroke-miterlimit="10"/>
<path d="M-23.5211 549.711C67.7064 583.253 145.757 594.855 202.816 571.361C238.15 556.814 253.832 522.593 271.978 480.721C295.089 427.378 302.103 372.088 343.375 329.341C356.679 315.557 371.128 305.363 387.726 297.163C429.03 276.768 465.539 278.426 497.776 254.141C515.293 240.939 526.98 229.046 536.474 213.387C546.901 196.192 553.687 175.477 569.528 149.271C599.095 100.349 653.584 29.8063 775.535 -58.2973" stroke="#8700FF" stroke-miterlimit="10"/>
<path d="M-23.6222 555.378C69.7769 592.144 147.425 603.423 203.558 580.026C238.982 565.264 254.128 530.435 271.884 488.056C294.304 434.554 301.536 378.897 343.383 335.942C356.879 322.089 371.454 311.927 388.06 303.777C429.497 283.462 466.169 284.995 498.315 259.763C515.795 246.041 527.154 233.651 536.228 217.68C546.278 199.996 552.559 178.953 568.164 152.448C597.22 103.087 652.037 32.5054 777.091 -54.051" stroke="#8C00FF" stroke-miterlimit="10"/>
<path d="M-23.7236 561.046C71.8472 601.035 149.093 611.99 204.299 588.682C239.81 573.695 254.432 538.267 271.8 495.39C293.539 441.736 300.989 385.704 343.401 342.542C357.079 328.622 371.789 318.48 388.403 310.389C429.973 290.146 466.801 291.574 498.862 265.374C516.293 251.124 527.327 238.246 535.988 221.953C545.652 203.781 551.427 182.399 566.805 155.594C595.352 105.804 650.485 35.1748 778.653 -49.8359" stroke="#9100FF" stroke-miterlimit="10"/>
<path d="M-23.8249 566.714C73.9176 609.927 150.76 620.547 205.041 597.348C240.65 582.133 254.737 546.108 271.707 502.735C292.757 448.931 300.423 392.523 343.419 349.143C357.289 335.153 372.115 325.044 388.747 317.001C430.45 296.839 467.441 298.142 499.41 270.985C516.793 256.216 527.5 242.842 535.75 226.236C545.026 207.565 550.308 185.863 565.439 158.761C593.487 108.541 648.935 37.8541 780.208 -45.5995" stroke="#9600FF" stroke-miterlimit="10"/>
<path d="M-23.9262 572.381C75.9781 618.82 152.425 629.095 205.783 606.013C241.48 590.573 255.042 553.949 271.623 510.068C292.003 456.112 299.865 399.33 343.438 355.743C357.49 341.685 372.451 331.607 389.1 323.612C430.937 303.53 468.083 304.719 499.979 276.602C517.315 261.315 527.695 247.453 535.533 230.525C544.413 211.368 549.21 189.334 564.105 161.934C591.643 111.284 647.407 40.5501 781.794 -41.3578" stroke="#9B00FF" stroke-miterlimit="10"/>
<path d="M-24.0176 578.047C78.0584 627.71 154.1 637.641 206.534 614.668C242.316 598.992 255.367 561.788 271.539 517.401C291.248 463.293 299.318 406.137 343.466 362.341C357.71 348.215 372.788 338.17 389.454 330.222C431.424 310.222 468.734 311.295 500.536 282.212C517.823 266.395 527.868 252.049 535.305 234.806C543.786 215.152 548.09 192.788 562.757 165.089C589.797 114.008 645.877 43.2264 783.367 -37.1343" stroke="#A000FF" stroke-miterlimit="10"/>
<path d="M-24.1189 583.715C80.1288 636.601 155.755 646.19 207.276 623.333C243.145 607.423 255.693 569.626 271.446 524.746C290.487 470.496 298.752 412.956 343.475 368.953C357.901 354.759 373.13 344.772 389.789 336.846C431.925 317.013 469.366 317.874 501.075 287.834C518.315 271.499 528.023 256.657 535.059 239.1C543.134 218.961 546.962 196.263 561.393 168.266C587.933 116.754 644.32 45.927 784.923 -32.888" stroke="#A500FF" stroke-miterlimit="10"/>
<path d="M-24.2201 589.382C82.1992 645.492 157.418 654.728 208.017 631.989C243.97 615.833 256.018 577.465 271.36 532.07C289.742 477.665 298.193 419.754 343.502 375.542C358.12 361.278 373.474 351.323 390.141 343.446C432.411 323.695 470.007 324.442 501.632 293.443C518.825 276.59 528.186 261.253 534.831 243.381C542.498 222.747 545.853 199.726 560.046 171.42C586.088 119.488 642.79 48.6033 786.497 -28.6645" stroke="#AA00FF" stroke-miterlimit="10"/>
<path d="M-24.3215 595.05C84.2696 654.384 159.07 663.258 208.769 640.653C244.808 624.262 256.364 585.31 271.278 539.413C289.01 484.863 297.647 426.57 343.522 382.152C358.322 367.82 373.802 357.897 390.486 350.068C432.888 330.388 470.648 331.019 502.181 299.064C519.325 281.682 528.34 265.861 534.594 247.674C541.855 226.555 544.736 203.2 558.691 174.596C584.234 122.233 641.243 51.3023 788.063 -24.4197" stroke="#AF00FF" stroke-miterlimit="10"/>
<path d="M-24.4226 600.717C86.3401 663.275 160.723 671.787 209.51 649.309C245.623 632.664 256.699 593.147 271.193 546.747C288.277 492.051 297.09 433.378 343.55 388.75C358.542 374.35 374.147 364.448 390.851 356.687C433.386 337.088 471.302 337.605 502.75 304.682C519.846 286.781 528.514 270.466 534.377 251.963C541.22 230.351 543.638 206.671 557.357 177.769C582.41 124.974 639.725 53.9969 789.649 -20.1779" stroke="#B400FF" stroke-miterlimit="10"/>
<path d="M-24.524 606.385C88.4104 672.166 162.375 680.316 210.253 657.975C246.449 641.085 257.037 601.003 271.099 554.082C287.544 499.239 296.523 440.187 343.558 395.352C358.732 380.884 374.463 371.014 391.185 363.301C433.853 343.783 471.933 344.184 503.289 310.304C520.336 291.874 528.659 275.076 534.129 256.247C540.556 234.151 542.519 210.135 555.989 180.926C580.545 127.71 638.174 56.6663 791.202 -15.9515" stroke="#B900FF" stroke-miterlimit="10"/>
<path d="M-24.6154 612.051C90.4907 681.056 164.035 688.834 211.003 666.629C247.273 649.485 257.392 608.837 271.025 561.414C286.831 506.424 295.985 446.992 343.585 401.941C358.94 387.405 374.808 377.565 391.537 369.902C434.337 350.455 472.582 350.741 503.855 315.902C520.855 296.954 528.822 279.672 533.91 260.517C539.91 237.938 541.417 213.576 554.652 184.079C578.718 130.431 636.643 59.3427 792.786 -11.7294" stroke="#BE00FF" stroke-miterlimit="10"/>
<path d="M-24.7167 617.719C92.5626 689.957 165.686 697.354 211.746 675.295C248.087 657.887 257.748 616.681 270.931 568.748C286.098 513.612 295.418 453.801 343.603 408.541C359.151 393.936 375.142 384.118 391.88 376.514C434.815 357.148 473.214 357.32 504.402 321.513C521.355 302.046 528.965 284.272 533.672 264.799C539.244 241.729 540.298 217.04 553.296 187.245C576.873 133.165 635.105 62.0303 794.35 -7.4946" stroke="#C300FF" stroke-miterlimit="10"/>
<path d="M-24.818 623.386C94.633 698.849 167.325 705.865 212.486 683.951C248.9 666.28 258.104 624.525 270.846 576.082C285.385 520.797 294.861 460.609 343.621 415.141C359.351 400.468 375.469 390.682 392.224 383.126C435.292 363.841 473.854 363.887 504.95 327.123C521.853 307.128 529.11 288.881 533.434 269.082C538.58 245.529 539.189 220.503 551.939 190.401C575.017 135.9 633.555 64.7096 795.904 -3.26813" stroke="#C800FF" stroke-miterlimit="10"/>
<path d="M-24.9207 629.044C96.7019 707.73 168.973 714.364 213.227 692.606C249.711 674.662 258.469 632.357 270.752 583.417C284.67 527.972 294.303 467.416 343.64 421.741C359.562 407.009 375.805 397.245 392.577 389.736C435.779 370.533 474.496 370.465 505.509 332.743C522.365 312.228 529.256 293.501 533.207 273.373C537.927 249.338 538.081 223.975 550.584 193.577C573.174 138.643 632.017 67.4071 797.47 0.976635" stroke="#CD00FF" stroke-miterlimit="10"/>
<path d="M-25.022 634.711C98.7723 716.622 170.612 722.875 213.968 701.262C250.512 683.046 258.835 640.2 270.667 590.74C283.965 535.146 293.744 474.214 343.656 428.332C359.761 413.532 376.13 403.799 392.919 396.338C436.253 377.206 475.135 377.022 506.055 338.344C522.864 317.311 529.399 298.1 532.967 277.646C537.253 253.14 536.97 227.428 549.227 196.733C571.338 141.375 630.467 70.0864 799.032 5.19174" stroke="#D200FF" stroke-miterlimit="10"/>
<path d="M-25.1134 640.378C100.843 725.513 172.26 731.375 214.72 709.926C251.323 691.428 259.221 648.039 270.584 598.084C283.264 542.339 293.188 481.032 343.686 434.94C359.983 420.071 376.476 410.36 393.274 402.959C436.741 383.908 475.788 383.608 506.614 343.963C523.373 322.401 529.545 302.72 532.741 281.937C536.591 256.95 535.872 230.899 547.881 199.897C569.503 144.107 628.938 72.7726 800.607 9.42516" stroke="#D700FF" stroke-miterlimit="10"/>
<path d="M-25.2147 646.045C102.913 734.404 173.888 739.878 215.461 718.582C252.123 699.802 259.597 655.88 270.5 605.417C282.57 549.521 292.641 487.838 343.704 441.54C360.183 426.604 376.812 416.923 393.618 409.571C437.218 390.601 476.42 390.187 507.172 349.582C523.895 327.5 529.693 307.349 532.513 286.218C535.918 260.762 534.763 234.362 546.535 203.062C567.669 146.849 627.398 75.4504 802.181 13.6585" stroke="#DC00FF" stroke-miterlimit="10"/>
<path d="M-25.316 651.713C104.983 743.296 175.525 748.379 216.203 727.248C252.923 708.176 259.983 663.719 270.406 612.752C281.877 556.703 292.074 494.647 343.713 448.142C360.383 433.136 377.128 423.488 393.952 416.185C437.685 397.296 477.05 396.757 507.71 355.194C524.385 332.594 529.818 311.961 532.265 290.502C535.234 264.565 533.644 237.826 545.169 206.229C565.824 149.583 625.85 78.1396 803.736 17.8949" stroke="#E100FF" stroke-miterlimit="10"/>
<path d="M-25.4172 657.38C107.054 752.187 177.152 756.872 216.944 735.904C253.719 716.53 260.369 671.559 270.321 620.086C281.182 563.876 291.516 501.455 343.741 454.741C360.593 439.667 377.474 430.049 394.305 422.795C438.171 403.977 477.692 403.334 508.267 360.804C524.893 337.675 529.954 316.582 532.037 294.783C534.562 268.377 532.545 241.287 543.822 209.384C563.988 152.315 624.309 80.8174 805.31 22.1184" stroke="#E600FF" stroke-miterlimit="10"/>
<path d="M-25.5185 663.048C109.124 761.079 178.778 765.364 217.686 744.569C254.508 724.896 260.765 679.396 270.227 627.42C280.498 571.056 290.959 508.263 343.748 461.332C360.792 446.19 377.788 436.595 394.647 429.397C438.637 410.662 478.331 409.892 508.815 366.415C525.394 342.767 530.09 321.203 531.799 299.065C533.879 272.19 531.436 244.749 542.466 212.549C562.153 155.047 622.771 83.5051 806.874 26.3533" stroke="#EB00FF" stroke-miterlimit="10"/>
<path d="M-25.6099 668.714C111.205 769.968 180.403 773.847 218.437 753.224C255.293 733.242 261.17 687.233 270.153 634.752C279.823 578.225 290.412 515.069 343.786 467.93C361.012 452.719 378.144 443.155 395.011 436.007C439.134 417.352 478.982 416.468 509.382 372.022C525.913 347.856 530.236 325.822 531.58 303.345C533.218 276.01 530.4 248.231 541.129 215.702C560.432 157.803 621.24 86.1814 808.457 30.5753" stroke="#F000FF" stroke-miterlimit="10"/>
<path d="M-25.7112 674.382C113.275 778.86 182.028 782.33 219.179 761.889C256.331 741.448 261.576 695.069 270.06 642.097C279.14 585.406 289.846 521.888 343.795 474.541C361.213 459.261 378.462 449.73 395.346 442.63C439.601 424.047 479.616 423.057 509.921 377.645C526.404 352.95 530.364 330.454 531.334 307.639C532.527 279.835 529.271 251.697 539.764 218.88C558.557 160.541 619.693 88.8804 810.014 34.8215" stroke="#F500FF" stroke-miterlimit="10"/>
<path d="M-25.8125 680.049C115.345 787.751 183.643 790.814 219.92 770.545C256.841 749.916 261.98 702.896 269.965 649.422C278.463 592.565 289.287 528.686 343.812 481.131C361.412 465.784 378.796 456.283 395.688 449.232C440.076 430.73 480.255 429.614 510.469 383.255C526.904 358.042 530.492 335.087 531.096 311.921C531.846 283.658 528.141 255.152 538.409 222.045C556.691 163.268 618.145 91.5696 811.579 39.0564" stroke="#FA00FF" stroke-miterlimit="10"/>
<path d="M-25.9138 685.717C117.416 796.643 185.248 799.3 220.663 779.211C296.654 736.104 236.574 580.712 343.832 487.742C408.453 431.717 469.455 454.176 511.027 388.875C547.437 331.698 518.822 285.953 537.063 225.21C554.844 165.991 616.614 94.2459 813.153 43.2898" stroke="#FF00FF" stroke-miterlimit="10"/>
</g>
<defs>
<clipPath id="clip0_544_439">
<rect width="925.41" height="870.8" fill="white" transform="translate(-135.41 -42.6287) rotate(-8.52159)"/>
</clipPath>
</defs>
</svg>
