<svg width="48" height="48" viewBox="0 0 48 48" fill="none" xmlns="http://www.w3.org/2000/svg">
<path d="M12 20H8C6.34315 20 5 21.3431 5 23V40C5 41.6569 6.34315 43 8 43H12V20Z" fill="white"/>
<path d="M15 18H35C37.7614 18 40 20.2386 40 23V41C40 42.1046 39.1046 43 38 43H17C15.8954 43 15 42.1046 15 41V18Z" fill="white"/>
<path d="M27 22.5C27 20.0147 29.0147 18 31.5 18H39.5C41.9853 18 44 20.0147 44 22.5C44 24.9853 41.9853 27 39.5 27H31.5C29.0147 27 27 24.9853 27 22.5Z" fill="white"/>
<rect x="26" y="27" width="17" height="9" rx="4.5" fill="white"/>
<path d="M23.8208 5.00096L15.0001 18L26.5001 19L28.4703 12.4326C29.1045 10.3184 28.5268 8.02669 26.966 6.4659L25.3554 4.85536C24.9116 4.4115 24.1733 4.48155 23.8208 5.00096Z" fill="white"/>
</svg>
