<svg width="20" height="20" viewBox="0 0 20 20" fill="none" xmlns="http://www.w3.org/2000/svg">
<mask id="mask0_1397_1045" style="mask-type:alpha" maskUnits="userSpaceOnUse" x="0" y="0" width="20" height="20">
<rect width="20" height="20" fill="#D9D9D9"/>
</mask>
<g mask="url(#mask0_1397_1045)">
<path d="M11.6665 16.6673C10.7498 16.6673 9.96512 16.3409 9.31234 15.6882C8.65956 15.0354 8.33317 14.2507 8.33317 13.334C8.33317 12.4173 8.65956 11.6326 9.31234 10.9798C9.96512 10.327 10.7498 10.0007 11.6665 10.0007C11.9859 10.0007 12.2811 10.0388 12.5519 10.1152C12.8228 10.1916 13.0832 10.3062 13.3332 10.459V3.33398H18.3332V5.83398H14.9998V13.334C14.9998 14.2507 14.6734 15.0354 14.0207 15.6882C13.3679 16.3409 12.5832 16.6673 11.6665 16.6673ZM1.6665 13.334C1.6665 11.959 1.93039 10.6638 2.45817 9.44857C2.98595 8.23329 3.70123 7.17426 4.604 6.27148C5.50678 5.36871 6.56581 4.65343 7.78109 4.12565C8.99636 3.59787 10.2915 3.33398 11.6665 3.33398V5.00065C10.5276 5.00065 9.45123 5.2194 8.43734 5.6569C7.42345 6.0944 6.53803 6.69162 5.78109 7.44857C5.02414 8.20551 4.42692 9.08746 3.98942 10.0944C3.55192 11.1013 3.33317 12.1812 3.33317 13.334H1.6665ZM4.99984 13.334C4.99984 12.4173 5.17692 11.5527 5.53109 10.7402C5.88525 9.92773 6.36442 9.2194 6.96859 8.61523C7.57275 8.01107 8.27762 7.53537 9.08317 7.18815C9.88873 6.84093 10.7498 6.66732 11.6665 6.66732V8.33398C10.2776 8.33398 9.09706 8.8201 8.12484 9.79232C7.15261 10.7645 6.6665 11.9451 6.6665 13.334H4.99984Z" fill="#F64C71"/>
</g>
</svg>
