<svg width="117" height="73" viewBox="0 0 117 73" fill="none" xmlns="http://www.w3.org/2000/svg">
<rect x="1.23611" y="20.7361" width="51.5278" height="51.5278" rx="25.7639" fill="#C8D8F8"/>
<rect x="1.23611" y="20.7361" width="51.5278" height="51.5278" rx="25.7639" stroke="#ABC5FA" stroke-width="1.47222"/>
<path d="M12.2852 56.8056H41.7296V59.7501H12.2852V56.8056ZM12.2852 36.1945L19.6463 41.3473L27.0074 31.7778L34.3685 41.3473L41.7296 36.1945V53.8612H12.2852V36.1945ZM15.2296 41.8498V50.9167H38.7852V41.8498L33.7509 45.3737L27.0074 36.6071L20.2638 45.3737L15.2296 41.8498Z" fill="#0A0D59"/>
<rect x="34.2361" y="0.736111" width="51.5278" height="51.5278" rx="25.7639" fill="#98D9C6"/>
<rect x="34.2361" y="0.736111" width="51.5278" height="51.5278" rx="25.7639" stroke="#85BFAE" stroke-width="1.47222"/>
<mask id="mask0_1545_937" style="mask-type:alpha" maskUnits="userSpaceOnUse" x="42" y="8" width="36" height="37">
<rect x="42.332" y="8.8335" width="35.3333" height="35.3333" fill="#D9D9D9"/>
</mask>
<g mask="url(#mask0_1545_937)">
<path d="M58.5273 33.8612H61.4718V27.9723H67.3607V25.0278H61.4718V19.1389H58.5273V25.0278H52.6385V27.9723H58.5273V33.8612ZM59.9996 41.2223C57.963 41.2223 56.0491 40.8358 54.2579 40.0629C52.4667 39.29 50.9086 38.241 49.5836 36.916C48.2586 35.591 47.2096 34.0329 46.4367 32.2417C45.6638 30.4505 45.2773 28.5366 45.2773 26.5001C45.2773 24.4635 45.6638 22.5496 46.4367 20.7584C47.2096 18.9672 48.2586 17.4091 49.5836 16.0841C50.9086 14.7591 52.4667 13.7101 54.2579 12.9372C56.0491 12.1643 57.963 11.7778 59.9996 11.7778C62.0361 11.7778 63.95 12.1643 65.7412 12.9372C67.5324 13.7101 69.0905 14.7591 70.4155 16.0841C71.7405 17.4091 72.7895 18.9672 73.5624 20.7584C74.3353 22.5496 74.7218 24.4635 74.7218 26.5001C74.7218 28.5366 74.3353 30.4505 73.5624 32.2417C72.7895 34.0329 71.7405 35.591 70.4155 36.916C69.0905 38.241 67.5324 39.29 65.7412 40.0629C63.95 40.8358 62.0361 41.2223 59.9996 41.2223ZM59.9996 38.2778C63.2875 38.2778 66.0725 37.1369 68.3544 34.8549C70.6364 32.573 71.7773 29.788 71.7773 26.5001C71.7773 23.2121 70.6364 20.4271 68.3544 18.1452C66.0725 15.8632 63.2875 14.7223 59.9996 14.7223C56.7116 14.7223 53.9267 15.8632 51.6447 18.1452C49.3628 20.4271 48.2218 23.2121 48.2218 26.5001C48.2218 29.788 49.3628 32.573 51.6447 34.8549C53.9267 37.1369 56.7116 38.2778 59.9996 38.2778Z" fill="#0F3D30"/>
</g>
<rect x="64.2361" y="20.7361" width="51.5278" height="51.5278" rx="25.7639" fill="#FFDC77"/>
<rect x="64.2361" y="20.7361" width="51.5278" height="51.5278" rx="25.7639" stroke="#EDC85C" stroke-width="1.47222"/>
<path d="M75.2812 56.8056H104.726V59.7501H75.2812V56.8056ZM75.2812 36.1945L82.6424 41.3473L90.0035 31.7778L97.3646 41.3473L104.726 36.1945V53.8612H75.2812V36.1945ZM78.2257 41.8498V50.9167H101.781V41.8498L96.747 45.3737L90.0035 36.6071L83.2599 45.3737L78.2257 41.8498Z" fill="#50400F"/>
</svg>
