<svg width="48" height="48" viewBox="0 0 48 48" fill="none" xmlns="http://www.w3.org/2000/svg">
<path d="M35.2583 13.3053C34.864 12.6982 33.9753 12.6982 33.581 13.3053L25.0307 26.4694C24.5986 27.1347 25.076 28.0141 25.8693 28.0141H29.3845C29.4078 28.3444 29.4197 28.6779 29.4197 29.0141C29.4197 34.0909 26.7174 38.5366 22.6728 40.9912C22.2619 41.2405 22.3547 41.8809 22.8326 41.9312C23.3542 41.986 23.8836 42.0141 24.4197 42.0141C32.3679 42.0141 38.8723 35.8321 39.3869 28.0141H42.97C43.7633 28.0141 44.2407 27.1347 43.8086 26.4694L35.2583 13.3053Z" fill="white"/>
<path d="M12.7134 34.7088C13.1077 35.3158 13.9964 35.3158 14.3907 34.7088L22.941 21.5446C23.3731 20.8794 22.8957 19.9999 22.1024 19.9999H18.5872C18.5638 19.6696 18.552 19.3362 18.552 18.9999C18.552 13.9231 21.2543 9.47749 25.2989 7.02288C25.7098 6.77352 25.617 6.13317 25.139 6.0829C24.6175 6.02806 24.088 5.99994 23.552 5.99994C15.6037 5.99994 9.09938 12.1819 8.58479 19.9999L5.00168 19.9999C4.20839 19.9999 3.73095 20.8794 4.16305 21.5446L12.7134 34.7088Z" fill="white"/>
</svg>
