<svg width="512" height="512" viewBox="0 0 512 512" fill="none" xmlns="http://www.w3.org/2000/svg">
<rect width="512" height="512" fill="#0A0D59"/>
<path d="M440.478 282.968V228H477V236.854H450.512V250.946H475.524V259.8H450.512V274.114H477V282.968H440.478Z" fill="white"/>
<path d="M394.047 282.968V275.073L420.682 236.854H395.596V228H433.447V235.895L406.885 274.114H434.184V282.968H394.047Z" fill="white"/>
<path d="M363.637 282.968V258.62L345.118 228H356.554L370.721 251.906H366.663L380.755 228H392.191L373.746 258.546V282.968H363.637Z" fill="white"/>
<path d="M316.186 282.968V228H326.22V274.114H349.757V282.968H316.186Z" fill="white"/>
<path d="M259.159 282.968L278.121 228H291.106L310.069 282.968H299.149L295.238 271.163H273.989L270.005 282.968H259.159ZM276.866 262.309H292.361L283.212 234.936H286.015L276.866 262.309Z" fill="white"/>
<path d="M233.317 283.853C229.086 283.853 225.324 282.968 222.028 281.197C218.781 279.426 216.224 276.992 214.355 273.893C212.485 270.794 211.551 267.277 211.551 263.342V228H221.585V262.825C221.585 265.088 222.077 267.129 223.061 268.949C224.094 270.769 225.496 272.196 227.266 273.229C229.037 274.212 231.054 274.704 233.317 274.704C235.628 274.704 237.645 274.212 239.367 273.229C241.138 272.196 242.515 270.769 243.499 268.949C244.532 267.129 245.048 265.088 245.048 262.825V228H255.083V263.342C255.083 267.277 254.148 270.794 252.279 273.893C250.41 276.992 247.827 279.426 244.532 281.197C241.285 282.968 237.547 283.853 233.317 283.853Z" fill="white"/>
<path d="M181.891 282.968V236.854H167.651V228H206.018V236.854H191.999V282.968H181.891Z" fill="white"/>
<path d="M118.871 282.968L136.874 255.3L119.018 228H130.528L145.137 250.356H139.825L154.36 228H165.87L148.089 255.3L166.018 282.968H154.508L139.825 260.317H145.137L130.381 282.968H118.871Z" fill="white"/>
<path d="M79.4906 282.968V228H116.013V236.854H89.525V250.946H114.537V259.8H89.525V274.114H116.013V282.968H79.4906Z" fill="white"/>
<path d="M49.24 282.968V236.854H35V228H73.3669V236.854H59.3482V282.968H49.24Z" fill="white"/>
</svg>
